<svg xmlns="http://www.w3.org/2000/svg" xmlns:xlink="http://www.w3.org/1999/xlink" width="600" height="1024" viewBox="0 0 600 1024">
  <defs>
    <style>
      .cls-1 {
        clip-path: url(#clip-Web_1366_3);
      }

      .cls-11, .cls-2 {
        fill: none;
      }

      .cls-2 {
        stroke: #fff;
        stroke-width: 2px;
      }

      .cls-12, .cls-3, .cls-4, .cls-5, .cls-6, .cls-7, .cls-8, .cls-9 {
        fill: #fff;
      }

      .cls-4 {
        font-size: 48px;
      }

      .cls-4, .cls-5, .cls-6, .cls-8, .cls-9 {
        font-family: MrEavesXLModOT-Reg, Mr Eaves XL Mod OT;
      }

      .cls-5 {
        font-size: 18px;
      }

      .cls-6 {
        font-size: 16px;
      }

      .cls-7 {
        font-size: 24px;
        font-family: MrEavesXLModOT-Heavy, Mr Eaves XL Mod OT;
        font-weight: 800;
      }

      .cls-8 {
        font-size: 28px;
      }

      .cls-9 {
        font-size: 14px;
      }

      .cls-10, .cls-12 {
        stroke: none;
      }

      .cls-13 {
        fill: #011a33;
      }
    </style>
    <clipPath id="clip-Web_1366_3">
      <rect width="600" height="1024"/>
    </clipPath>
  </defs>
  <g id="Web_1366_3" data-name="Web 1366 – 3" class="cls-1">
    <rect class="cls-13" width="600" height="1024"/>
    <g id="Group_33" data-name="Group 33" transform="translate(-6532 -1638)">
      <g id="Group_30" data-name="Group 30" transform="translate(6379 1589)">
        <g id="Ellipse_1" data-name="Ellipse 1" class="cls-2" transform="translate(557 145)">
          <ellipse class="cls-10" cx="51.127" cy="51.127" rx="51.127" ry="51.127"/>
          <ellipse class="cls-11" cx="51.127" cy="51.127" rx="50.127" ry="50.127"/>
        </g>
        <g id="Union_1" data-name="Union 1" class="cls-3" transform="translate(603.834 213.723)">
          <path class="cls-10" d="M 58.69028091430664 42.9955940246582 L 15.82419395446777 42.9955940246582 L 15.82419395446777 42.97865676879883 L 14.80740356445313 42.9937744140625 C 14.73378372192383 42.99501419067383 14.65951347351074 42.9955940246582 14.58557319641113 42.9955940246582 C 10.95682334899902 42.9955940246582 7.545223712921143 41.58244323730469 4.979203701019287 39.01644515991211 C 2.413183689117432 36.45044326782227 1.000003576278687 33.03881454467773 1.000003576278687 29.41002464294434 C 1.000003576278687 26.05292510986328 2.234493494033813 22.82999420166016 4.476073741912842 20.33494567871094 C 6.700813770294189 17.85864448547363 9.738253593444824 16.28826522827148 13.02887344360352 15.91308498382568 L 13.93582344055176 15.80968475341797 L 13.91534328460693 14.8970947265625 C 13.91291332244873 14.78891468048096 13.91168403625488 14.68410491943359 13.91168403625488 14.5855655670166 C 13.91168403625488 10.95678520202637 15.32480335235596 7.545165061950684 17.89072418212891 4.979165077209473 C 20.4566535949707 2.413165092468262 23.86819267272949 1.000005125999451 27.49690437316895 1.000005125999451 C 31.98433303833008 1.000005125999451 36.17847442626953 3.213735103607178 38.71622467041016 6.921745300292969 L 39.12949371337891 7.525585174560547 L 39.83007431030273 7.314404964447021 C 41.09725189208984 6.932425022125244 42.41811370849609 6.738745212554932 43.7559928894043 6.738745212554932 C 46.52033233642578 6.738745212554932 49.18007278442383 7.56349515914917 51.44765472412109 9.123845100402832 C 53.66383361816406 10.6488151550293 55.36395263671875 12.76872539520264 56.36422348022461 15.25441551208496 L 56.64083480834961 15.94179534912109 L 57.37897491455078 15.87729549407959 C 57.77691268920898 15.84252548217773 58.18118286132813 15.82489490509033 58.58054351806641 15.82489490509033 C 62.20957183837891 15.82489490509033 65.62126159667969 17.23798561096191 68.18716430664063 19.80385589599609 C 70.75302124023438 22.36967468261719 72.16610717773438 25.78121566772461 72.16610717773438 29.41002464294434 C 72.16610717773438 32.99988555908203 70.77882385253906 36.38532638549805 68.25982666015625 38.94271469116211 C 65.74358367919922 41.49728393554688 62.38534545898438 42.93597412109375 58.80373382568359 42.99376678466797 L 58.69028091430664 42.9955940246582 Z"/>
          <path class="cls-12" d="M 58.68225860595703 41.9955940246582 L 58.78759765625 41.993896484375 C 62.10537719726563 41.94036102294922 65.21633148193359 40.60755157470703 67.54740142822266 38.24097442626953 C 69.88095092773438 35.87184906005859 71.16610717773438 32.73563003540039 71.16610717773438 29.4100284576416 C 71.16610717773438 26.0483283996582 69.8570556640625 22.88791656494141 67.48007202148438 20.51096153259277 C 65.10304260253906 18.13396263122559 61.94246292114258 16.82489585876465 58.58054351806641 16.82489585876465 C 58.21009826660156 16.82489585876465 57.83513259887695 16.84125137329102 57.46604156494141 16.87350654602051 L 55.98975372314453 17.00250625610352 L 55.43653106689453 15.62773990631104 C 54.50986480712891 13.32498359680176 52.93452072143555 11.36083984375 50.88078689575195 9.947661399841309 C 48.78070831298828 8.502573013305664 46.31699752807617 7.738750457763672 43.75599670410156 7.738750457763672 C 42.51596450805664 7.738750457763672 41.29218673706055 7.918106079101563 40.11867523193359 8.2718505859375 L 38.71752166748047 8.694206237792969 L 37.89099884033203 7.486528396606445 C 35.53975296020508 4.051039695739746 31.65410995483398 2.000006198883057 27.49689865112305 2.000006198883057 C 24.13530921936035 2.000006198883057 20.97489738464355 3.309139490127563 18.59784317016602 5.686261653900146 C 16.22078704833984 8.063395500183105 14.91168689727783 11.22389507293701 14.91168689727783 14.58557319641113 C 14.91168689727783 14.67658424377441 14.91283130645752 14.773850440979 14.91509819030762 14.87468433380127 L 14.95603179931641 16.69985008239746 L 13.1421537399292 16.90665054321289 C 10.09465312957764 17.25411796569824 7.281153678894043 18.708984375 5.219953536987305 21.00326156616211 C 3.143531322479248 23.31447219848633 1.999998092651367 26.30005073547363 1.999998092651367 29.4100284576416 C 1.999998092651367 32.77170562744141 3.30915355682373 35.93220520019531 5.686309337615967 38.30934143066406 C 8.063442230224609 40.68646240234375 11.22393131256104 41.9955940246582 14.58556461334229 41.9955940246582 C 14.65388679504395 41.9955940246582 14.72249794006348 41.99507141113281 14.79052066802979 41.99392700195313 L 16.82418632507324 41.96163940429688 L 16.82418632507324 41.9955940246582 L 58.68225860595703 41.9955940246582 M 58.81986618041992 43.9955940246582 L 14.82418727874756 43.9955940246582 L 14.82418727874756 43.9936408996582 C 14.74499797821045 43.99497222900391 14.6651086807251 43.9955940246582 14.58556461334229 43.9955940246582 C 6.530409336090088 43.9955940246582 -1.966688387255999e-06 37.46535110473633 -1.966688387255999e-06 29.4100284576416 C -1.966688387255999e-06 21.91962814331055 5.647309303283691 15.74821758270264 12.91559791564941 14.91952800750732 C 12.91310882568359 14.80856132507324 12.91168689727783 14.69715023040771 12.91168689727783 14.58557319641113 C 12.91168689727783 6.530328273773193 19.44174194335938 6.216091605892871e-06 27.49689865112305 6.216091605892871e-06 C 32.50007629394531 6.216091605892871e-06 36.91453170776367 2.51863956451416 39.54146575927734 6.356950759887695 C 40.87553024291992 5.954817295074463 42.29055404663086 5.738750457763672 43.75599670410156 5.738750457763672 C 49.88764190673828 5.738750457763672 55.1351203918457 9.521406173706055 57.29193115234375 14.88109493255615 C 57.71660995483398 14.84398365020752 58.14626312255859 14.82489490509033 58.58054351806641 14.82489490509033 C 66.63640594482422 14.82489490509033 73.16610717773438 21.35477256774902 73.16610717773438 29.4100284576416 C 73.16610717773438 37.38519668579102 66.76459503173828 43.86545181274414 58.81986618041992 43.9936408996582 L 58.81986618041992 43.9955940246582 Z"/>
        </g>
      </g>
      <text id="Partly_Cloudy" data-name="Partly Cloudy" class="cls-4" transform="translate(6592 1767)"><tspan x="0" y="0">Partly Cloudy</tspan></text>
      <text id="Work" class="cls-5" transform="translate(6710 1868)"><tspan x="0" y="0">Work</tspan></text>
      <text id="_7AM_-_3:30PM" data-name="7AM - 3:30PM" class="cls-6" transform="translate(6593 1868)"><tspan x="0" y="0">7AM - 3:30PM</tspan></text>
      <text id="Party_at_Mike_s_Place" data-name="Party at Mike’s Place" class="cls-5" transform="translate(6710 1892)"><tspan x="0" y="0">Party at Mike’s Place</tspan></text>
      <text id="_8PM_-_11PM" data-name="8PM - 11PM" class="cls-6" transform="translate(6593 1892)"><tspan x="0" y="0">8PM - 11PM</tspan></text>
      <g id="Group_3" data-name="Group 3" transform="translate(6452 1565)">
        <g id="Ellipse_14" data-name="Ellipse 14" class="cls-2" transform="translate(140 367)">
          <ellipse class="cls-10" cx="11.087" cy="11.087" rx="11.087" ry="11.087"/>
          <ellipse class="cls-11" cx="11.087" cy="11.087" rx="10.087" ry="10.087"/>
        </g>
        <g id="Union_3" data-name="Union 3" class="cls-3" transform="translate(150.156 381.903)">
          <path class="cls-10" d="M 12.72095203399658 8.540865898132324 L 4.214780807495117 8.540865898132324 L 4.214780807495117 8.523216247558594 L 3.197290658950806 8.540586471557617 C 3.185940742492676 8.540785789489746 3.174460649490356 8.540865898132324 3.163020610809326 8.540865898132324 C 1.970330595970154 8.540865898132324 1.000000596046448 7.570536136627197 1.000000596046448 6.377836227416992 C 1.000000596046448 5.277196407318115 1.822910666465759 4.353406429290771 2.91416072845459 4.229016304016113 L 3.821490526199341 4.125586032867432 L 3.80064058303833 3.212616205215454 C 3.800260543823242 3.196126222610474 3.800050735473633 3.179596185684204 3.800050735473633 3.163026332855225 C 3.800050735473633 1.970306277275085 4.770350456237793 0.9999662637710571 5.963010787963867 0.9999662637710571 C 6.677490711212158 0.9999662637710571 7.345420837402344 1.352636218070984 7.749720573425293 1.943366289138794 L 8.162970542907715 2.54715633392334 L 8.863511085510254 2.336026191711426 C 9.065011024475098 2.275296211242676 9.275440216064453 2.244506359100342 9.488950729370117 2.244506359100342 C 10.3771505355835 2.244506359100342 11.16520023345947 2.776716232299805 11.49660110473633 3.600386142730713 L 11.77322101593018 4.28791618347168 L 12.51150035858154 4.223306179046631 C 12.57521057128906 4.21773624420166 12.63991069793701 4.214906215667725 12.70380020141602 4.214906215667725 C 13.89649105072021 4.214906215667725 14.86682033538818 5.185196399688721 14.86682033538818 6.377836227416992 C 14.86682033538818 7.551446437835693 13.91253089904785 8.521636009216309 12.73955059051514 8.540566444396973 L 12.72095203399658 8.540865898132324 Z"/>
          <path class="cls-12" d="M 12.71287441253662 7.540866374969482 L 12.72341060638428 7.540696144104004 C 13.35389041900635 7.530526161193848 13.86682033538818 7.008866310119629 13.86682033538818 6.377836227416992 C 13.86682033538818 5.73659610748291 13.34509086608887 5.214906215667725 12.70380020141602 5.214906215667725 C 12.66889095306396 5.214906215667725 12.63352108001709 5.216456413269043 12.59868049621582 5.21950626373291 L 11.12213039398193 5.348716259002686 L 10.56887054443359 3.97364616394043 C 10.39066028594971 3.530716180801392 9.966760635375977 3.244506359100342 9.488950729370117 3.244506359100342 C 9.373260498046875 3.244506359100342 9.259921073913574 3.260986328125 9.152070999145508 3.293486356735229 L 7.750980854034424 3.715746164321899 L 6.924490451812744 2.508166313171387 C 6.706700801849365 2.189946174621582 6.347270488739014 1.999966263771057 5.963010787963867 1.999966263771057 C 5.321750640869141 1.999966263771057 4.800050735473633 2.521716356277466 4.800050735473633 3.163026332855225 C 4.800050735473633 3.171966314315796 4.800180435180664 3.180886268615723 4.800380706787109 3.189776182174683 L 4.842080593109131 5.015716075897217 L 3.02742075920105 5.222576141357422 C 2.441690683364868 5.289346218109131 2.000000715255737 5.785996437072754 2.000000715255737 6.377836227416992 C 2.000000715255737 7.019136428833008 2.521730661392212 7.540866374969482 3.163020610809326 7.540866374969482 L 3.179800748825073 7.540746212005615 L 5.214780807495117 7.505576133728027 L 5.214780807495117 7.540866374969482 L 12.71287441253662 7.540866374969482 M 12.75568103790283 9.540865898132324 L 3.214780569076538 9.540865898132324 L 3.214780569076538 9.540435791015625 C 3.197630643844604 9.540736198425293 3.180300712585449 9.540865898132324 3.163020610809326 9.540865898132324 C 1.416200637817383 9.540865898132324 6.445312692449079e-07 8.124726295471191 6.445312692449079e-07 6.377836227416992 C 6.445312692449079e-07 4.753476142883301 1.224670648574829 3.415126323699951 2.80090069770813 3.235446214675903 C 2.800350666046143 3.211366176605225 2.800050735473633 3.187226295471191 2.800050735473633 3.163026332855225 C 2.800050735473633 1.416136264801025 4.21613073348999 -3.37402343575377e-05 5.963010787963867 -3.37402343575377e-05 C 7.047970771789551 -3.37402343575377e-05 8.005250930786133 0.5461762547492981 8.574950218200684 1.378566265106201 C 8.864320755004883 1.291356205940247 9.171140670776367 1.244506239891052 9.488950729370117 1.244506239891052 C 10.81860065460205 1.244506239891052 11.95666027069092 2.064786195755005 12.42432022094727 3.227116346359253 C 12.51642036437988 3.219056367874146 12.60962104797363 3.214906215667725 12.70380020141602 3.214906215667725 C 14.45081043243408 3.214906215667725 15.86682033538818 4.630986213684082 15.86682033538818 6.377836227416992 C 15.86682033538818 8.107326507568359 14.47864055633545 9.512636184692383 12.75568103790283 9.540435791015625 L 12.75568103790283 9.540865898132324 Z"/>
        </g>
      </g>
      <text id="Tomorrow" class="cls-7" transform="translate(6654 1952)"><tspan x="0" y="0">Tomorrow</tspan></text>
      <text id="Work-2" data-name="Work" class="cls-5" transform="translate(6771 1980)"><tspan x="0" y="0">Work</tspan></text>
      <text id="_7AM_-_3:30PM-2" data-name="7AM - 3:30PM" class="cls-6" transform="translate(6654 1980)"><tspan x="0" y="0">7AM - 3:30PM</tspan></text>
      <text id="Call_Parents" data-name="Call Parents" class="cls-5" transform="translate(6771 2004)"><tspan x="0" y="0">Call Parents</tspan></text>
      <text id="_5:45PM" data-name="5:45PM" class="cls-6" transform="translate(6654 2004)"><tspan x="0" y="0">5:45PM</tspan></text>
      <g id="Group_2" data-name="Group 2" transform="translate(6452 1638)">
        <g id="Ellipse_19" data-name="Ellipse 19" class="cls-2" transform="translate(140 402)">
          <ellipse class="cls-10" cx="11.087" cy="11.087" rx="11.087" ry="11.087"/>
          <ellipse class="cls-11" cx="11.087" cy="11.087" rx="10.087" ry="10.087"/>
        </g>
        <g id="Union_4" data-name="Union 4" class="cls-3" transform="translate(150.156 416.903)">
          <path class="cls-10" d="M 12.72095203399658 8.540865898132324 L 4.214780807495117 8.540865898132324 L 4.214780807495117 8.523216247558594 L 3.197290658950806 8.540586471557617 C 3.185940742492676 8.540785789489746 3.174460649490356 8.540865898132324 3.163020610809326 8.540865898132324 C 1.970330595970154 8.540865898132324 1.000000596046448 7.570536136627197 1.000000596046448 6.377836227416992 C 1.000000596046448 5.277196407318115 1.822910666465759 4.353406429290771 2.91416072845459 4.229016304016113 L 3.821490526199341 4.125586032867432 L 3.80064058303833 3.212616205215454 C 3.800260543823242 3.196126222610474 3.800050735473633 3.179596185684204 3.800050735473633 3.163026332855225 C 3.800050735473633 1.970306277275085 4.770350456237793 0.9999662637710571 5.963010787963867 0.9999662637710571 C 6.677490711212158 0.9999662637710571 7.345420837402344 1.352636218070984 7.749720573425293 1.943366289138794 L 8.162970542907715 2.54715633392334 L 8.863511085510254 2.336026191711426 C 9.065011024475098 2.275296211242676 9.275440216064453 2.244506359100342 9.488950729370117 2.244506359100342 C 10.3771505355835 2.244506359100342 11.16520023345947 2.776716232299805 11.49660110473633 3.600386142730713 L 11.77322101593018 4.28791618347168 L 12.51150035858154 4.223306179046631 C 12.57521057128906 4.21773624420166 12.63991069793701 4.214906215667725 12.70380020141602 4.214906215667725 C 13.89649105072021 4.214906215667725 14.86682033538818 5.185196399688721 14.86682033538818 6.377836227416992 C 14.86682033538818 7.551446437835693 13.91253089904785 8.521636009216309 12.73955059051514 8.540566444396973 L 12.72095203399658 8.540865898132324 Z"/>
          <path class="cls-12" d="M 12.71287441253662 7.540866374969482 L 12.72341060638428 7.540696144104004 C 13.35389041900635 7.530526161193848 13.86682033538818 7.008866310119629 13.86682033538818 6.377836227416992 C 13.86682033538818 5.73659610748291 13.34509086608887 5.214906215667725 12.70380020141602 5.214906215667725 C 12.66889095306396 5.214906215667725 12.63352108001709 5.216456413269043 12.59868049621582 5.21950626373291 L 11.12213039398193 5.348716259002686 L 10.56887054443359 3.97364616394043 C 10.39066028594971 3.530716180801392 9.966760635375977 3.244506359100342 9.488950729370117 3.244506359100342 C 9.373260498046875 3.244506359100342 9.259921073913574 3.260986328125 9.152070999145508 3.293486356735229 L 7.750980854034424 3.715746164321899 L 6.924490451812744 2.508166313171387 C 6.706700801849365 2.189946174621582 6.347270488739014 1.999966263771057 5.963010787963867 1.999966263771057 C 5.321750640869141 1.999966263771057 4.800050735473633 2.521716356277466 4.800050735473633 3.163026332855225 C 4.800050735473633 3.171966314315796 4.800180435180664 3.180886268615723 4.800380706787109 3.189776182174683 L 4.842080593109131 5.015716075897217 L 3.02742075920105 5.222576141357422 C 2.441690683364868 5.289346218109131 2.000000715255737 5.785996437072754 2.000000715255737 6.377836227416992 C 2.000000715255737 7.019136428833008 2.521730661392212 7.540866374969482 3.163020610809326 7.540866374969482 L 3.179800748825073 7.540746212005615 L 5.214780807495117 7.505576133728027 L 5.214780807495117 7.540866374969482 L 12.71287441253662 7.540866374969482 M 12.75568103790283 9.540865898132324 L 3.214780569076538 9.540865898132324 L 3.214780569076538 9.540435791015625 C 3.197630643844604 9.540736198425293 3.180300712585449 9.540865898132324 3.163020610809326 9.540865898132324 C 1.416200637817383 9.540865898132324 6.445312692449079e-07 8.124726295471191 6.445312692449079e-07 6.377836227416992 C 6.445312692449079e-07 4.753476142883301 1.224670648574829 3.415126323699951 2.80090069770813 3.235446214675903 C 2.800350666046143 3.211366176605225 2.800050735473633 3.187226295471191 2.800050735473633 3.163026332855225 C 2.800050735473633 1.416136264801025 4.21613073348999 -3.37402343575377e-05 5.963010787963867 -3.37402343575377e-05 C 7.047970771789551 -3.37402343575377e-05 8.005250930786133 0.5461762547492981 8.574950218200684 1.378566265106201 C 8.864320755004883 1.291356205940247 9.171140670776367 1.244506239891052 9.488950729370117 1.244506239891052 C 10.81860065460205 1.244506239891052 11.95666027069092 2.064786195755005 12.42432022094727 3.227116346359253 C 12.51642036437988 3.219056367874146 12.60962104797363 3.214906215667725 12.70380020141602 3.214906215667725 C 14.45081043243408 3.214906215667725 15.86682033538818 4.630986213684082 15.86682033538818 6.377836227416992 C 15.86682033538818 8.107326507568359 14.47864055633545 9.512636184692383 12.75568103790283 9.540435791015625 L 12.75568103790283 9.540865898132324 Z"/>
        </g>
      </g>
      <text id="Friday" class="cls-7" transform="translate(6654 2059)"><tspan x="0" y="0">Friday</tspan></text>
      <text id="Work-3" data-name="Work" class="cls-5" transform="translate(6771 2088)"><tspan x="0" y="0">Work</tspan></text>
      <text id="_7AM_-_3:30PM-3" data-name="7AM - 3:30PM" class="cls-6" transform="translate(6654 2088)"><tspan x="0" y="0">7AM - 3:30PM</tspan></text>
      <g id="Ellipse_30" data-name="Ellipse 30" class="cls-2" transform="translate(6592 2125)">
        <ellipse class="cls-10" cx="11.087" cy="11.087" rx="11.087" ry="11.087"/>
        <ellipse class="cls-11" cx="11.087" cy="11.087" rx="10.087" ry="10.087"/>
      </g>
      <text id="Saturday" class="cls-7" transform="translate(6654 2143)"><tspan x="0" y="0">Saturday</tspan></text>
      <text id="Car_to_Mechanic" data-name="Car to Mechanic" class="cls-5" transform="translate(6771 2172)"><tspan x="0" y="0">Car to Mechanic</tspan></text>
      <text id="_8AM_-_11AM" data-name="8AM - 11AM" class="cls-6" transform="translate(6654 2172)"><tspan x="0" y="0">8AM - 11AM</tspan></text>
      <g id="Group_1" data-name="Group 1" transform="translate(6452 1728)">
        <g id="Ellipse_25" data-name="Ellipse 25" class="cls-2" transform="translate(140 479)">
          <ellipse class="cls-10" cx="11.087" cy="11.087" rx="11.087" ry="11.087"/>
          <ellipse class="cls-11" cx="11.087" cy="11.087" rx="10.087" ry="10.087"/>
        </g>
        <g id="Union_5" data-name="Union 5" class="cls-3" transform="translate(150.156 493.903)">
          <path class="cls-10" d="M 12.72095203399658 8.540865898132324 L 4.214780807495117 8.540865898132324 L 4.214780807495117 8.523216247558594 L 3.197290658950806 8.540586471557617 C 3.185940742492676 8.540785789489746 3.174460649490356 8.540865898132324 3.163020610809326 8.540865898132324 C 1.970330595970154 8.540865898132324 1.000000596046448 7.570536136627197 1.000000596046448 6.377836227416992 C 1.000000596046448 5.277196407318115 1.822910666465759 4.353406429290771 2.91416072845459 4.229016304016113 L 3.821490526199341 4.125586032867432 L 3.80064058303833 3.212616205215454 C 3.800260543823242 3.196126222610474 3.800050735473633 3.179596185684204 3.800050735473633 3.163026332855225 C 3.800050735473633 1.970306277275085 4.770350456237793 0.9999662637710571 5.963010787963867 0.9999662637710571 C 6.677490711212158 0.9999662637710571 7.345420837402344 1.352636218070984 7.749720573425293 1.943366289138794 L 8.162970542907715 2.54715633392334 L 8.863511085510254 2.336026191711426 C 9.065011024475098 2.275296211242676 9.275440216064453 2.244506359100342 9.488950729370117 2.244506359100342 C 10.3771505355835 2.244506359100342 11.16520023345947 2.776716232299805 11.49660110473633 3.600386142730713 L 11.77322101593018 4.28791618347168 L 12.51150035858154 4.223306179046631 C 12.57521057128906 4.21773624420166 12.63991069793701 4.214906215667725 12.70380020141602 4.214906215667725 C 13.89649105072021 4.214906215667725 14.86682033538818 5.185196399688721 14.86682033538818 6.377836227416992 C 14.86682033538818 7.551446437835693 13.91253089904785 8.521636009216309 12.73955059051514 8.540566444396973 L 12.72095203399658 8.540865898132324 Z"/>
          <path class="cls-12" d="M 12.71287441253662 7.540866374969482 L 12.72341060638428 7.540696144104004 C 13.35389041900635 7.530526161193848 13.86682033538818 7.008866310119629 13.86682033538818 6.377836227416992 C 13.86682033538818 5.73659610748291 13.34509086608887 5.214906215667725 12.70380020141602 5.214906215667725 C 12.66889095306396 5.214906215667725 12.63352108001709 5.216456413269043 12.59868049621582 5.21950626373291 L 11.12213039398193 5.348716259002686 L 10.56887054443359 3.97364616394043 C 10.39066028594971 3.530716180801392 9.966760635375977 3.244506359100342 9.488950729370117 3.244506359100342 C 9.373260498046875 3.244506359100342 9.259921073913574 3.260986328125 9.152070999145508 3.293486356735229 L 7.750980854034424 3.715746164321899 L 6.924490451812744 2.508166313171387 C 6.706700801849365 2.189946174621582 6.347270488739014 1.999966263771057 5.963010787963867 1.999966263771057 C 5.321750640869141 1.999966263771057 4.800050735473633 2.521716356277466 4.800050735473633 3.163026332855225 C 4.800050735473633 3.171966314315796 4.800180435180664 3.180886268615723 4.800380706787109 3.189776182174683 L 4.842080593109131 5.015716075897217 L 3.02742075920105 5.222576141357422 C 2.441690683364868 5.289346218109131 2.000000715255737 5.785996437072754 2.000000715255737 6.377836227416992 C 2.000000715255737 7.019136428833008 2.521730661392212 7.540866374969482 3.163020610809326 7.540866374969482 L 3.179800748825073 7.540746212005615 L 5.214780807495117 7.505576133728027 L 5.214780807495117 7.540866374969482 L 12.71287441253662 7.540866374969482 M 12.75568103790283 9.540865898132324 L 3.214780569076538 9.540865898132324 L 3.214780569076538 9.540435791015625 C 3.197630643844604 9.540736198425293 3.180300712585449 9.540865898132324 3.163020610809326 9.540865898132324 C 1.416200637817383 9.540865898132324 6.445312692449079e-07 8.124726295471191 6.445312692449079e-07 6.377836227416992 C 6.445312692449079e-07 4.753476142883301 1.224670648574829 3.415126323699951 2.80090069770813 3.235446214675903 C 2.800350666046143 3.211366176605225 2.800050735473633 3.187226295471191 2.800050735473633 3.163026332855225 C 2.800050735473633 1.416136264801025 4.21613073348999 -3.37402343575377e-05 5.963010787963867 -3.37402343575377e-05 C 7.047970771789551 -3.37402343575377e-05 8.005250930786133 0.5461762547492981 8.574950218200684 1.378566265106201 C 8.864320755004883 1.291356205940247 9.171140670776367 1.244506239891052 9.488950729370117 1.244506239891052 C 10.81860065460205 1.244506239891052 11.95666027069092 2.064786195755005 12.42432022094727 3.227116346359253 C 12.51642036437988 3.219056367874146 12.60962104797363 3.214906215667725 12.70380020141602 3.214906215667725 C 14.45081043243408 3.214906215667725 15.86682033538818 4.630986213684082 15.86682033538818 6.377836227416992 C 15.86682033538818 8.107326507568359 14.47864055633545 9.512636184692383 12.75568103790283 9.540435791015625 L 12.75568103790283 9.540865898132324 Z"/>
        </g>
      </g>
      <text id="Sunday" class="cls-7" transform="translate(6654 2226)"><tspan x="0" y="0">Sunday</tspan></text>
      <text id="Adam_Hangout" data-name="Adam Hangout" class="cls-5" transform="translate(6771 2255)"><tspan x="0" y="0">Adam Hangout</tspan></text>
      <text id="_8PM_-_11PM-2" data-name="8PM - 11PM" class="cls-6" transform="translate(6654 2255)"><tspan x="0" y="0">8PM - 11PM</tspan></text>
      <text id="High_60_Low_42_" data-name="High 60°
Low 42°" class="cls-8" transform="translate(6592 1806)"><tspan x="0" y="0">High 60°</tspan><tspan x="0" y="30">Low 42°</tspan></text>
      <text id="_65_41_" data-name="65°
41°" class="cls-9" transform="translate(6623 1943)"><tspan x="0" y="0">65°</tspan><tspan x="0" y="12">41°</tspan></text>
      <text id="_59_50_" data-name="59°
50°" class="cls-9" transform="translate(6623 2050)"><tspan x="0" y="0">59°</tspan><tspan x="0" y="12">50°</tspan></text>
      <text id="_66_52_" data-name="66°
52°" class="cls-9" transform="translate(6619 2134)"><tspan x="0" y="0">66°</tspan><tspan x="0" y="12">52°</tspan></text>
      <text id="_71_61_" data-name="71°
61°" class="cls-9" transform="translate(6623 2217)"><tspan x="0" y="0">71°</tspan><tspan x="0" y="12">61°</tspan></text>
      <text id="Today" class="cls-8" transform="translate(6592 1713)"><tspan x="0" y="0">Today</tspan></text>
    </g>
  </g>
</svg>
