<?xml version="1.0" encoding="utf-8"?>
<!-- Generator: Adobe Illustrator 24.1.2, SVG Export Plug-In . SVG Version: 6.00 Build 0)  -->
<svg version="1.1" id="Layer_1" xmlns="http://www.w3.org/2000/svg" xmlns:xlink="http://www.w3.org/1999/xlink" x="0px" y="0px"
	 viewBox="0 0 48 47.9" style="enable-background:new 0 0 48 47.9;" xml:space="preserve">
<style type="text/css">
	.st0{fill:#FFFFFF;}
</style>
<path class="st0" d="M47.7,14.9L33.1,0.3c-0.4-0.4-1-0.4-1.4,0l-4.6,4.6c-0.4,0.4-0.4,1,0,1.4l1.2,1.2l-6.8,6.8
	c-5.9-1.6-12.3,0.1-16.6,4.5c-0.4,0.4-0.4,1,0,1.4l10.7,10.7L0.3,46.3c-0.4,0.4-0.4,1,0,1.4C0.5,47.9,0.7,48,1,48s0.5-0.1,0.7-0.3
	l15.4-15.4l10.7,10.7c0.2,0.2,0.5,0.3,0.7,0.3s0.5-0.1,0.7-0.3c4.4-4.4,6-10.7,4.5-16.6l6.8-6.8l1.2,1.2c0.2,0.2,0.4,0.3,0.7,0.3
	s0.5-0.1,0.7-0.3l4.6-4.6c0.2-0.2,0.3-0.4,0.3-0.7S47.9,15,47.7,14.9z M42.4,18.8l-1.2-1.2c-0.2-0.2-0.4-0.3-0.7-0.3
	s-0.5,0.1-0.7,0.3l-7.9,7.9c-0.3,0.3-0.4,0.6-0.2,1c1.5,5.1,0.4,10.5-3.1,14.5L7.1,19.5c3.9-3.5,9.4-4.7,14.5-3.1
	c0.4,0.1,0.7,0,1-0.2l7.9-7.9c0.4-0.4,0.4-1,0-1.4l-1.2-1.2l3.2-3.2l13.1,13.1L42.4,18.8z"/>
</svg>
